<?xml version="1.0" standalone="no"?>
<svg contentScriptType="text/ecmascript" width="24" xmlns:xlink="http://www.w3.org/1999/xlink" baseProfile="full"
    zoomAndPan="magnify" contentStyleType="text/css" viewBox="0 0 24 24" height="24" preserveAspectRatio="xMidYMid meet"
    xmlns="http://www.w3.org/2000/svg" version="1.0">
    <path fill="#ffffff" d="M 8.0 20.0 c 1.65 0.0 3.0 -1.45 3.0 -3.0 V 7.0 c 0.0 -1.65 -1.45 -3.0 -3.0 -3.0 s -3.0 1.35 
        -3.0 3.0 v 10.0 c 0.0 1.65 1.35 3.0 3.0 3.0 z m 5.0 -14.0 v 11.0 c 0.0 1.65 1.35 3.0 3.0 3.0 s 3.0 -1.35 3.0 
        -3.0 V 7.0 c 0.0 -1.65 -1.35 -3.0 -3.0 -3.0 s -3.0 1.35 -3.0 3.0 z"/>
    <path d="M 8.0 19.0 c 1.1 0.0 2.0 -0.9 2.0 -2.0 V 7.0 c 0.0 -1.1 -0.9 -2.0 -2.0 -2.0 s -2.0 0.9 -2.0 2.0 v 10.0 c 
        0.0 1.1 0.9 2.0 2.0 2.0 z m 6.0 -12.0 v 10.0 c 0.0 1.1 0.9 2.0 2.0 2.0 s 2.0 -0.9 2.0 -2.0 V 7.0 c 0.0 -1.1 -0.9 
        -2.0 -2.0 -2.0 s -2.0 0.9 -2.0 2.0 z"/>
</svg>