<?xml version="1.0" standalone="no"?>
<svg contentScriptType="text/ecmascript" width="24" xmlns:xlink="http://www.w3.org/1999/xlink" baseProfile="full"
    zoomAndPan="magnify" contentStyleType="text/css" viewBox="0 0 24 24" height="24" preserveAspectRatio="xMidYMid meet"
    xmlns="http://www.w3.org/2000/svg" version="1.0">
    <path fill="#ffffff" d="M 7.0 5.0 h 10.0 c 1.1 0.0 2.0 0.9 2.0 2.0 v 10.0 c 0.0 1.1 -0.9 2.0 -2.0 2.0 H 7.0 c -1.1 
        0.0 -2.0 -0.9 -2.0 -2.0 V 7.0 c 0.0 -1.1 0.9 -2.0 2.0 -2.0 z"/>
    <path d="M8 6h8c1.1 0 2 .9 2 2v8c0 1.1-.9 2-2 2H8c-1.1 0-2-.9-2-2V8c0-1.1.9-2 2-2z"/>
</svg>