<svg xmlns="http://www.w3.org/2000/svg" width="144" height="144" viewBox="-24 -24 144 144">
  <defs>
    <filter id="dropShadow" x="-25%" y="-25%" width="150%" height="150%">
      <feOffset result="offOut" in="SourceGraphic" dx="0" dy="1" />
      <feGaussianBlur result="blurOut" in="offOut" stdDeviation="5" style="fill: skyblue;"/>
      <feBlend in="SourceGraphic" in2="blurOut" />
    </filter>
  </defs>
  <!--
  <path
    d="M10.8 15.9l4.67-3.5c.27-.2.27-.6 0-.8L10.8 8.1c-.33-.25-.8-.01-.8.4v7c0 .41.47.65.8.4zM12 2C6.48 2 2 6.48 2 12s4.48 10 10 10 10-4.48 10-10S17.52 2 12 2zm0 18c-4.41 0-8-3.59-8-8s3.59-8 8-8 8 3.59 8 8-3.59 8-8 8z"
    style="filter:url(#f2)"
  />-->
  <!--<path
          d="M21.6 31.8l9.34-7c.54-.4.54-1.2 0-1.6L21.6 16.2c-.66-.5-1.6-.02-1.6.8v14c0 .82.94.130.16.8zM24 4C12.96 4 4 12.96 4 24s8.96 20 20 20 20-8.96 20-20S35.04 4 24 4zm0 36c-8.82 0-16-7.18-16-16s7.18-16 16-16 16 7.18 16 16-7.18 16-16 16z"
          style="filter:url(#f2)"
  />
  -->
  <!--
  <path
          d="
            M 10.8 15.9
            l 4.67 -3.5
            c .27 -.2, .27 -.6, 0 -.8
            L 10.8 8.1
            c -.33 -.25, -.8 -.01, -.8 .4
            v 7
            c 0 .41, .47 .65, .8 .4
            z
            M 12 2
            C 6.48 2, 2 6.48, 2 12
            s 4.48 10, 10 10
              10 -4.48, 10 -10
            S 17.52 2, 12 2
            z
            m 0 18
            c -4.41 0, -8 -3.59, -8 -8
            s 3.59 -8, 8 -8
              8 3.59, 8 8
              -3.59 8, -8 8
            z"
          style="filter:url(#f2)"
  />
  -->
  <!-- TODO: farbiger Schatten - https://developer.mozilla.org/en-US/docs/Web/SVG/Attribute/in -->
  <path
          d="
            M 43.2 63.6
            l 18.68 -14
            c 1.08 -.8, 1.08 -2.4, 0 -3.2
            L 43.2 32.4
            c -1.32 -1, -3.2 -.04, -3.2 1.6
            v 28
            c 0 1.64, 1.88 2.6, 3.2 1.6
            z
            M 48 8
            C 25.92 8, 8 25.92, 8 48
            s 17.92 40, 40 40
              40 -17.92, 40 -40
            S 70.08 8, 48 8
            z
            m 0 72
            c -17.64 0, -32 -14.36, -32 -32
            s 14.36 -32, 32 -32
              32 14.36, 32 32
              -14.36 32, -32 32
            z"
          filter="url(#dropShadow)"
  />
</svg>
